<svg xmlns="http://www.w3.org/2000/svg" viewBox="0 0 490.00002 490.00002" aria-label="Department of Agrarian Reform logo" role="img">
  <g transform="translate(-39.751363,-327.3622)">
    <g transform="matrix(0.71980392,0,0,0.73075124,11.139157,220.07375)">
      <path d="m 40,147.3622 0,265.00001 135,0 c 0,0 103.47733,-12.21675 103.39811,-132.50001 C 278.31889,159.57895 175,147.3622 175,147.3622 Z" style="fill:#fcd116;fill-opacity:1;fill-rule:evenodd;stroke:#000000;stroke-width:0.5"/>
      <path d="m 386.5,147.3622 -136.5,265 80,0 -14.83241,-32.5 47.4159,6.5 23.91651,-42.2946 24.86668,42.2946 45.13332,-6.5 -14.55826,32.5 83.05826,0 z" style="fill:#fcd116;fill-opacity:1;fill-rule:evenodd;stroke:#000000;stroke-width:0.5"/>
      <path d="m 535,147.3622 0,265 185,0 -80,-110 c 0,0 80.08819,-10.76847 80,-77.5 -0.0885,-66.96521 -70,-77.5 -70,-77.5 z" style="fill:#fcd116;fill-opacity:1;fill-rule:evenodd;stroke:#000000;stroke-width:0.5"/>
      <path d="m 40,442.3622 680,-1.14229 0,71.14229 -333.5,-70 -346.5,70 z" style="fill:#006c35;fill-opacity:1;fill-rule:evenodd"/>
      <path d="m 40,562.3622 0,50 285.26912,-147.90878 0,-4.04061 z" style="fill:#006c35;fill-opacity:1;fill-rule:evenodd"/>
      <path d="m 40,657.3622 288.29958,-178.76664 3.283,4.29314 L 40,744.8622 Z" style="fill:#006c35;fill-opacity:1;fill-rule:evenodd"/>
      <path d="m 339.91633,490.21231 5.3033,3.283 L 145,817.3622 l -105,0 0,-15 294.61303,-305.83643 z" style="fill:#006c35;fill-opacity:1;fill-rule:evenodd"/>
      <path d="M 355.82623,504.35445 267.5,817.3622 l -75,0 161.05339,-322.6042 z" style="fill:#006c35;fill-opacity:1;fill-rule:evenodd"/>
      <path d="m 368.70568,505.86968 6.81853,3.03046 L 365,817.3622 l -61.25,0 z" style="fill:#006c35;fill-opacity:1;fill-rule:evenodd"/>
      <path d="m 392.94934,512.94075 5.3033,-1.01016 64.24736,305.43161 -62.5,0 -10.08111,-304.92653 z" style="fill:#006c35;fill-opacity:1;fill-rule:evenodd"/>
      <path d="m 410.87954,505.86968 5.55584,-2.02031 L 572.5,817.3622 l -75,0 z" style="fill:#006c35;fill-opacity:1;fill-rule:evenodd"/>
      <path d="M 429.56737,495.26307 720,802.3622 l 0,15 -100,0 -194.97832,-317.3009 z" style="fill:#006c35;fill-opacity:1;fill-rule:evenodd"/>
      <path d="M 437.39605,484.65647 720,742.3622 l 0,-87.5 -279.57349,-174.49888 z" style="fill:#006c35;fill-opacity:1;fill-rule:evenodd"/>
      <path d="m 720,558.8622 0,53.5 -273.51258,-144.1207 1e-5,-5.55584 z" style="fill:#006c35;fill-opacity:1;fill-rule:evenodd"/>
      <path d="m 458.79127,441.87032 a 74.071968,74.071968 0 0 1 -36.77864,64.50673 74.071968,74.071968 0 0 1 -74.25464,0.19032 A 74.071968,74.071968 0 0 1 310.64918,442.25" style="fill:#006c35;fill-opacity:1;stroke:none"/>
    </g>
  </g>
</svg>
